# xmcd
#
# Track frame offsets: 
#        150
#        27335
#        52940
#        74524
#        93290
#        108384
#        136198
#        159725
#        174816
#        189280
#        220960
#        237185
#
# Disc length: 3505 seconds
#
# Revision: 1
# Processed by: cddbd v1.4PL0 Copyright (c) Steve Scherf et al.
# Submitted via: ExactAudioCopy v0.90b4
#
DISCID=9a0daf0c
DTITLE=Van Morrison - The Story Of The Red Hot Pokers, disc 2
DYEAR=2001
DGENRE=Celtic
TTITLE0=Golden Autumn Day
TTITLE1=Raincheck
TTITLE2=Into The Mystic
TTITLE3=Who Can I Turn To ?
TTITLE4=Brown Eyed Girl
TTITLE5=Philosophers Stone > Oh, Didn't He Ramble
TTITLE6=Just Like A Woman
TTITLE7=There Stands The Glass
TTITLE8=Precious Time
TTITLE9=Northern Muse (Solid Ground) > No Prima Donna > All Change
TTITLE10=Jackie Wilson Said ...
TTITLE11=Bright Side Of The Road
EXTD=
EXTT0=
EXTT1=
EXTT2=
EXTT3=
EXTT4=
EXTT5=
EXTT6=
EXTT7=
EXTT8=
EXTT9=
EXTT10=
EXTT11=
PLAYORDER=
